<svg xmlns="http://www.w3.org/2000/svg" width="1147" height="1147" xml:space="preserve">
  <path fill="#FFF" d="M0 0h1147v1147H0z"/>
  <path d="M0 0h100v100H0z" transform="matrix(.31 0 0 .31 310 62)" style="fill:#000"/>
  <path d="M0 0h100v100H0z" transform="matrix(.31 0 0 .31 403 62)" style="fill:#000"/>
  <path d="M0 0h100v100H0z" transform="matrix(.31 0 0 .31 465 62)" style="fill:#000"/>
  <path d="M0 0h100v100H0z" transform="matrix(.31 0 0 .31 558 62)" style="fill:#000"/>
  <path d="M0 0h100v100H0z" transform="matrix(.31 0 0 .31 589 62)" style="fill:#000"/>
  <path d="M0 0h100v100H0z" transform="matrix(.31 0 0 .31 651 62)" style="fill:#000"/>
  <path d="M0 0h100v100H0z" transform="matrix(.31 0 0 .31 682 62)" style="fill:#000"/>
  <path d="M0 0h100v100H0z" transform="matrix(.31 0 0 .31 775 62)" style="fill:#000"/>
  <path d="M0 0h100v100H0z" transform="matrix(.31 0 0 .31 310 93)" style="fill:#000"/>
  <path d="M0 0h100v100H0z" transform="matrix(.31 0 0 .31 341 93)" style="fill:#000"/>
  <path d="M0 0h100v100H0z" transform="matrix(.31 0 0 .31 403 93)" style="fill:#000"/>
  <path d="M0 0h100v100H0z" transform="matrix(.31 0 0 .31 465 93)" style="fill:#000"/>
  <path d="M0 0h100v100H0z" transform="matrix(.31 0 0 .31 558 93)" style="fill:#000"/>
  <path d="M0 0h100v100H0z" transform="matrix(.31 0 0 .31 620 93)" style="fill:#000"/>
  <path d="M0 0h100v100H0z" transform="matrix(.31 0 0 .31 775 93)" style="fill:#000"/>
  <path d="M0 0h100v100H0z" transform="matrix(.31 0 0 .31 806 93)" style="fill:#000"/>
  <path d="M0 0h100v100H0z" transform="matrix(.31 0 0 .31 341 124)" style="fill:#000"/>
  <path d="M0 0h100v100H0z" transform="matrix(.31 0 0 .31 372 124)" style="fill:#000"/>
  <path d="M0 0h100v100H0z" transform="matrix(.31 0 0 .31 434 124)" style="fill:#000"/>
  <path d="M0 0h100v100H0z" transform="matrix(.31 0 0 .31 589 124)" style="fill:#000"/>
  <path d="M0 0h100v100H0z" transform="matrix(.31 0 0 .31 651 124)" style="fill:#000"/>
  <path d="M0 0h100v100H0z" transform="matrix(.31 0 0 .31 806 124)" style="fill:#000"/>
  <path d="M0 0h100v100H0z" transform="matrix(.31 0 0 .31 310 155)" style="fill:#000"/>
  <path d="M0 0h100v100H0z" transform="matrix(.31 0 0 .31 341 155)" style="fill:#000"/>
  <path d="M0 0h100v100H0z" transform="matrix(.31 0 0 .31 496 155)" style="fill:#000"/>
  <path d="M0 0h100v100H0z" transform="matrix(.31 0 0 .31 527 155)" style="fill:#000"/>
  <path d="M0 0h100v100H0z" transform="matrix(.31 0 0 .31 558 155)" style="fill:#000"/>
  <path d="M0 0h100v100H0z" transform="matrix(.31 0 0 .31 651 155)" style="fill:#000"/>
  <path d="M0 0h100v100H0z" transform="matrix(.31 0 0 .31 682 155)" style="fill:#000"/>
  <path d="M0 0h100v100H0z" transform="matrix(.31 0 0 .31 744 155)" style="fill:#000"/>
  <path d="M0 0h100v100H0z" transform="matrix(.31 0 0 .31 806 155)" style="fill:#000"/>
  <path d="M0 0h100v100H0z" transform="matrix(.31 0 0 .31 403 186)" style="fill:#000"/>
  <path d="M0 0h100v100H0z" transform="matrix(.31 0 0 .31 496 186)" style="fill:#000"/>
  <path d="M0 0h100v100H0z" transform="matrix(.31 0 0 .31 589 186)" style="fill:#000"/>
  <path d="M0 0h100v100H0z" transform="matrix(.31 0 0 .31 682 186)" style="fill:#000"/>
  <path d="M0 0h100v100H0z" transform="matrix(.31 0 0 .31 744 186)" style="fill:#000"/>
  <path d="M0 0h100v100H0z" transform="matrix(.31 0 0 .31 806 186)" style="fill:#000"/>
  <path d="M0 0h100v100H0z" transform="matrix(.31 0 0 .31 372 217)" style="fill:#000"/>
  <path d="M0 0h100v100H0z" transform="matrix(.31 0 0 .31 434 217)" style="fill:#000"/>
  <path d="M0 0h100v100H0z" transform="matrix(.31 0 0 .31 620 217)" style="fill:#000"/>
  <path d="M0 0h100v100H0z" transform="matrix(.31 0 0 .31 651 217)" style="fill:#000"/>
  <path d="M0 0h100v100H0z" transform="matrix(.31 0 0 .31 682 217)" style="fill:#000"/>
  <path d="M0 0h100v100H0z" transform="matrix(.31 0 0 .31 713 217)" style="fill:#000"/>
  <path d="M0 0h100v100H0z" transform="matrix(.31 0 0 .31 744 217)" style="fill:#000"/>
  <path d="M0 0h100v100H0z" transform="matrix(.31 0 0 .31 310 248)" style="fill:#000"/>
  <path d="M0 0h100v100H0z" transform="matrix(.31 0 0 .31 372 248)" style="fill:#000"/>
  <path d="M0 0h100v100H0z" transform="matrix(.31 0 0 .31 434 248)" style="fill:#000"/>
  <path d="M0 0h100v100H0z" transform="matrix(.31 0 0 .31 496 248)" style="fill:#000"/>
  <path d="M0 0h100v100H0z" transform="matrix(.31 0 0 .31 558 248)" style="fill:#000"/>
  <path d="M0 0h100v100H0z" transform="matrix(.31 0 0 .31 620 248)" style="fill:#000"/>
  <path d="M0 0h100v100H0z" transform="matrix(.31 0 0 .31 682 248)" style="fill:#000"/>
  <path d="M0 0h100v100H0z" transform="matrix(.31 0 0 .31 744 248)" style="fill:#000"/>
  <path d="M0 0h100v100H0z" transform="matrix(.31 0 0 .31 806 248)" style="fill:#000"/>
  <path d="M0 0h100v100H0z" transform="matrix(.31 0 0 .31 310 279)" style="fill:#000"/>
  <path d="M0 0h100v100H0z" transform="matrix(.31 0 0 .31 341 279)" style="fill:#000"/>
  <path d="M0 0h100v100H0z" transform="matrix(.31 0 0 .31 403 279)" style="fill:#000"/>
  <path d="M0 0h100v100H0z" transform="matrix(.31 0 0 .31 434 279)" style="fill:#000"/>
  <path d="M0 0h100v100H0z" transform="matrix(.31 0 0 .31 589 279)" style="fill:#000"/>
  <path d="M0 0h100v100H0z" transform="matrix(.31 0 0 .31 682 279)" style="fill:#000"/>
  <path d="M0 0h100v100H0z" transform="matrix(.31 0 0 .31 806 279)" style="fill:#000"/>
  <path d="M0 0h100v100H0z" transform="matrix(.31 0 0 .31 62 310)" style="fill:#000"/>
  <path d="M0 0h100v100H0z" transform="matrix(.31 0 0 .31 124 310)" style="fill:#000"/>
  <path d="M0 0h100v100H0z" transform="matrix(.31 0 0 .31 155 310)" style="fill:#000"/>
  <path d="M0 0h100v100H0z" transform="matrix(.31 0 0 .31 217 310)" style="fill:#000"/>
  <path d="M0 0h100v100H0z" transform="matrix(.31 0 0 .31 248 310)" style="fill:#000"/>
  <path d="M0 0h100v100H0z" transform="matrix(.31 0 0 .31 279 310)" style="fill:#000"/>
  <path d="M0 0h100v100H0z" transform="matrix(.31 0 0 .31 341 310)" style="fill:#000"/>
  <path d="M0 0h100v100H0z" transform="matrix(.31 0 0 .31 372 310)" style="fill:#000"/>
  <path d="M0 0h100v100H0z" transform="matrix(.31 0 0 .31 403 310)" style="fill:#000"/>
  <path d="M0 0h100v100H0z" transform="matrix(.31 0 0 .31 496 310)" style="fill:#000"/>
  <path d="M0 0h100v100H0z" transform="matrix(.31 0 0 .31 589 310)" style="fill:#000"/>
  <path d="M0 0h100v100H0z" transform="matrix(.31 0 0 .31 620 310)" style="fill:#000"/>
  <path d="M0 0h100v100H0z" transform="matrix(.31 0 0 .31 651 310)" style="fill:#000"/>
  <path d="M0 0h100v100H0z" transform="matrix(.31 0 0 .31 713 310)" style="fill:#000"/>
  <path d="M0 0h100v100H0z" transform="matrix(.31 0 0 .31 744 310)" style="fill:#000"/>
  <path d="M0 0h100v100H0z" transform="matrix(.31 0 0 .31 806 310)" style="fill:#000"/>
  <path d="M0 0h100v100H0z" transform="matrix(.31 0 0 .31 868 310)" style="fill:#000"/>
  <path d="M0 0h100v100H0z" transform="matrix(.31 0 0 .31 961 310)" style="fill:#000"/>
  <path d="M0 0h100v100H0z" transform="matrix(.31 0 0 .31 1023 310)" style="fill:#000"/>
  <path d="M0 0h100v100H0z" transform="matrix(.31 0 0 .31 1054 310)" style="fill:#000"/>
  <path d="M0 0h100v100H0z" transform="matrix(.31 0 0 .31 93 341)" style="fill:#000"/>
  <path d="M0 0h100v100H0z" transform="matrix(.31 0 0 .31 124 341)" style="fill:#000"/>
  <path d="M0 0h100v100H0z" transform="matrix(.31 0 0 .31 186 341)" style="fill:#000"/>
  <path d="M0 0h100v100H0z" transform="matrix(.31 0 0 .31 279 341)" style="fill:#000"/>
  <path d="M0 0h100v100H0z" transform="matrix(.31 0 0 .31 310 341)" style="fill:#000"/>
  <path d="M0 0h100v100H0z" transform="matrix(.31 0 0 .31 341 341)" style="fill:#000"/>
  <path d="M0 0h100v100H0z" transform="matrix(.31 0 0 .31 403 341)" style="fill:#000"/>
  <path d="M0 0h100v100H0z" transform="matrix(.31 0 0 .31 558 341)" style="fill:#000"/>
  <path d="M0 0h100v100H0z" transform="matrix(.31 0 0 .31 620 341)" style="fill:#000"/>
  <path d="M0 0h100v100H0z" transform="matrix(.31 0 0 .31 651 341)" style="fill:#000"/>
  <path d="M0 0h100v100H0z" transform="matrix(.31 0 0 .31 682 341)" style="fill:#000"/>
  <path d="M0 0h100v100H0z" transform="matrix(.31 0 0 .31 713 341)" style="fill:#000"/>
  <path d="M0 0h100v100H0z" transform="matrix(.31 0 0 .31 775 341)" style="fill:#000"/>
  <path d="M0 0h100v100H0z" transform="matrix(.31 0 0 .31 868 341)" style="fill:#000"/>
  <path d="M0 0h100v100H0z" transform="matrix(.31 0 0 .31 899 341)" style="fill:#000"/>
  <path d="M0 0h100v100H0z" transform="matrix(.31 0 0 .31 961 341)" style="fill:#000"/>
  <path d="M0 0h100v100H0z" transform="matrix(.31 0 0 .31 992 341)" style="fill:#000"/>
  <path d="M0 0h100v100H0z" transform="matrix(.31 0 0 .31 1054 341)" style="fill:#000"/>
  <path d="M0 0h100v100H0z" transform="matrix(.31 0 0 .31 186 372)" style="fill:#000"/>
  <path d="M0 0h100v100H0z" transform="matrix(.31 0 0 .31 217 372)" style="fill:#000"/>
  <path d="M0 0h100v100H0z" transform="matrix(.31 0 0 .31 248 372)" style="fill:#000"/>
  <path d="M0 0h100v100H0z" transform="matrix(.31 0 0 .31 279 372)" style="fill:#000"/>
  <path d="M0 0h100v100H0z" transform="matrix(.31 0 0 .31 310 372)" style="fill:#000"/>
  <path d="M0 0h100v100H0z" transform="matrix(.31 0 0 .31 341 372)" style="fill:#000"/>
  <path d="M0 0h100v100H0z" transform="matrix(.31 0 0 .31 372 372)" style="fill:#000"/>
  <path d="M0 0h100v100H0z" transform="matrix(.31 0 0 .31 403 372)" style="fill:#000"/>
  <path d="M0 0h100v100H0z" transform="matrix(.31 0 0 .31 434 372)" style="fill:#000"/>
  <path d="M0 0h100v100H0z" transform="matrix(.31 0 0 .31 496 372)" style="fill:#000"/>
  <path d="M0 0h100v100H0z" transform="matrix(.31 0 0 .31 558 372)" style="fill:#000"/>
  <path d="M0 0h100v100H0z" transform="matrix(.31 0 0 .31 589 372)" style="fill:#000"/>
  <path d="M0 0h100v100H0z" transform="matrix(.31 0 0 .31 713 372)" style="fill:#000"/>
  <path d="M0 0h100v100H0z" transform="matrix(.31 0 0 .31 775 372)" style="fill:#000"/>
  <path d="M0 0h100v100H0z" transform="matrix(.31 0 0 .31 868 372)" style="fill:#000"/>
  <path d="M0 0h100v100H0z" transform="matrix(.31 0 0 .31 899 372)" style="fill:#000"/>
  <path d="M0 0h100v100H0z" transform="matrix(.31 0 0 .31 930 372)" style="fill:#000"/>
  <path d="M0 0h100v100H0z" transform="matrix(.31 0 0 .31 961 372)" style="fill:#000"/>
  <path d="M0 0h100v100H0z" transform="matrix(.31 0 0 .31 1054 372)" style="fill:#000"/>
  <path d="M0 0h100v100H0z" transform="matrix(.31 0 0 .31 93 403)" style="fill:#000"/>
  <path d="M0 0h100v100H0z" transform="matrix(.31 0 0 .31 124 403)" style="fill:#000"/>
  <path d="M0 0h100v100H0z" transform="matrix(.31 0 0 .31 217 403)" style="fill:#000"/>
  <path d="M0 0h100v100H0z" transform="matrix(.31 0 0 .31 279 403)" style="fill:#000"/>
  <path d="M0 0h100v100H0z" transform="matrix(.31 0 0 .31 341 403)" style="fill:#000"/>
  <path d="M0 0h100v100H0z" transform="matrix(.31 0 0 .31 465 403)" style="fill:#000"/>
  <path d="M0 0h100v100H0z" transform="matrix(.31 0 0 .31 496 403)" style="fill:#000"/>
  <path d="M0 0h100v100H0z" transform="matrix(.31 0 0 .31 558 403)" style="fill:#000"/>
  <path d="M0 0h100v100H0z" transform="matrix(.31 0 0 .31 620 403)" style="fill:#000"/>
  <path d="M0 0h100v100H0z" transform="matrix(.31 0 0 .31 682 403)" style="fill:#000"/>
  <path d="M0 0h100v100H0z" transform="matrix(.31 0 0 .31 744 403)" style="fill:#000"/>
  <path d="M0 0h100v100H0z" transform="matrix(.31 0 0 .31 837 403)" style="fill:#000"/>
  <path d="M0 0h100v100H0z" transform="matrix(.31 0 0 .31 868 403)" style="fill:#000"/>
  <path d="M0 0h100v100H0z" transform="matrix(.31 0 0 .31 899 403)" style="fill:#000"/>
  <path d="M0 0h100v100H0z" transform="matrix(.31 0 0 .31 961 403)" style="fill:#000"/>
  <path d="M0 0h100v100H0z" transform="matrix(.31 0 0 .31 1023 403)" style="fill:#000"/>
  <path d="M0 0h100v100H0z" transform="matrix(.31 0 0 .31 1054 403)" style="fill:#000"/>
  <path d="M0 0h100v100H0z" transform="matrix(.31 0 0 .31 93 434)" style="fill:#000"/>
  <path d="M0 0h100v100H0z" transform="matrix(.31 0 0 .31 124 434)" style="fill:#000"/>
  <path d="M0 0h100v100H0z" transform="matrix(.31 0 0 .31 155 434)" style="fill:#000"/>
  <path d="M0 0h100v100H0z" transform="matrix(.31 0 0 .31 217 434)" style="fill:#000"/>
  <path d="M0 0h100v100H0z" transform="matrix(.31 0 0 .31 248 434)" style="fill:#000"/>
  <path d="M0 0h100v100H0z" transform="matrix(.31 0 0 .31 341 434)" style="fill:#000"/>
  <path d="M0 0h100v100H0z" transform="matrix(.31 0 0 .31 372 434)" style="fill:#000"/>
  <path d="M0 0h100v100H0z" transform="matrix(.31 0 0 .31 434 434)" style="fill:#000"/>
  <path d="M0 0h100v100H0z" transform="matrix(.31 0 0 .31 527 434)" style="fill:#000"/>
  <path d="M0 0h100v100H0z" transform="matrix(.31 0 0 .31 620 434)" style="fill:#000"/>
  <path d="M0 0h100v100H0z" transform="matrix(.31 0 0 .31 651 434)" style="fill:#000"/>
  <path d="M0 0h100v100H0z" transform="matrix(.31 0 0 .31 744 434)" style="fill:#000"/>
  <path d="M0 0h100v100H0z" transform="matrix(.31 0 0 .31 775 434)" style="fill:#000"/>
  <path d="M0 0h100v100H0z" transform="matrix(.31 0 0 .31 806 434)" style="fill:#000"/>
  <path d="M0 0h100v100H0z" transform="matrix(.31 0 0 .31 837 434)" style="fill:#000"/>
  <path d="M0 0h100v100H0z" transform="matrix(.31 0 0 .31 930 434)" style="fill:#000"/>
  <path d="M0 0h100v100H0z" transform="matrix(.31 0 0 .31 961 434)" style="fill:#000"/>
  <path d="M0 0h100v100H0z" transform="matrix(.31 0 0 .31 1023 434)" style="fill:#000"/>
  <path d="M0 0h100v100H0z" transform="matrix(.31 0 0 .31 62 465)" style="fill:#000"/>
  <path d="M0 0h100v100H0z" transform="matrix(.31 0 0 .31 124 465)" style="fill:#000"/>
  <path d="M0 0h100v100H0z" transform="matrix(.31 0 0 .31 217 465)" style="fill:#000"/>
  <path d="M0 0h100v100H0z" transform="matrix(.31 0 0 .31 310 465)" style="fill:#000"/>
  <path d="M0 0h100v100H0z" transform="matrix(.31 0 0 .31 403 465)" style="fill:#000"/>
  <path d="M0 0h100v100H0z" transform="matrix(.31 0 0 .31 434 465)" style="fill:#000"/>
  <path d="M0 0h100v100H0z" transform="matrix(.31 0 0 .31 465 465)" style="fill:#000"/>
  <path d="M0 0h100v100H0z" transform="matrix(.31 0 0 .31 558 465)" style="fill:#000"/>
  <path d="M0 0h100v100H0z" transform="matrix(.31 0 0 .31 589 465)" style="fill:#000"/>
  <path d="M0 0h100v100H0z" transform="matrix(.31 0 0 .31 620 465)" style="fill:#000"/>
  <path d="M0 0h100v100H0z" transform="matrix(.31 0 0 .31 713 465)" style="fill:#000"/>
  <path d="M0 0h100v100H0z" transform="matrix(.31 0 0 .31 744 465)" style="fill:#000"/>
  <path d="M0 0h100v100H0z" transform="matrix(.31 0 0 .31 806 465)" style="fill:#000"/>
  <path d="M0 0h100v100H0z" transform="matrix(.31 0 0 .31 899 465)" style="fill:#000"/>
  <path d="M0 0h100v100H0z" transform="matrix(.31 0 0 .31 992 465)" style="fill:#000"/>
  <path d="M0 0h100v100H0z" transform="matrix(.31 0 0 .31 1023 465)" style="fill:#000"/>
  <path d="M0 0h100v100H0z" transform="matrix(.31 0 0 .31 93 496)" style="fill:#000"/>
  <path d="M0 0h100v100H0z" transform="matrix(.31 0 0 .31 124 496)" style="fill:#000"/>
  <path d="M0 0h100v100H0z" transform="matrix(.31 0 0 .31 186 496)" style="fill:#000"/>
  <path d="M0 0h100v100H0z" transform="matrix(.31 0 0 .31 248 496)" style="fill:#000"/>
  <path d="M0 0h100v100H0z" transform="matrix(.31 0 0 .31 403 496)" style="fill:#000"/>
  <path d="M0 0h100v100H0z" transform="matrix(.31 0 0 .31 465 496)" style="fill:#000"/>
  <path d="M0 0h100v100H0z" transform="matrix(.31 0 0 .31 496 496)" style="fill:#000"/>
  <path d="M0 0h100v100H0z" transform="matrix(.31 0 0 .31 527 496)" style="fill:#000"/>
  <path d="M0 0h100v100H0z" transform="matrix(.31 0 0 .31 558 496)" style="fill:#000"/>
  <path d="M0 0h100v100H0z" transform="matrix(.31 0 0 .31 713 496)" style="fill:#000"/>
  <path d="M0 0h100v100H0z" transform="matrix(.31 0 0 .31 806 496)" style="fill:#000"/>
  <path d="M0 0h100v100H0z" transform="matrix(.31 0 0 .31 868 496)" style="fill:#000"/>
  <path d="M0 0h100v100H0z" transform="matrix(.31 0 0 .31 930 496)" style="fill:#000"/>
  <path d="M0 0h100v100H0z" transform="matrix(.31 0 0 .31 961 496)" style="fill:#000"/>
  <path d="M0 0h100v100H0z" transform="matrix(.31 0 0 .31 62 527)" style="fill:#000"/>
  <path d="M0 0h100v100H0z" transform="matrix(.31 0 0 .31 279 527)" style="fill:#000"/>
  <path d="M0 0h100v100H0z" transform="matrix(.31 0 0 .31 310 527)" style="fill:#000"/>
  <path d="M0 0h100v100H0z" transform="matrix(.31 0 0 .31 341 527)" style="fill:#000"/>
  <path d="M0 0h100v100H0z" transform="matrix(.31 0 0 .31 372 527)" style="fill:#000"/>
  <path d="M0 0h100v100H0z" transform="matrix(.31 0 0 .31 403 527)" style="fill:#000"/>
  <path d="M0 0h100v100H0z" transform="matrix(.31 0 0 .31 434 527)" style="fill:#000"/>
  <path d="M0 0h100v100H0z" transform="matrix(.31 0 0 .31 465 527)" style="fill:#000"/>
  <path d="M0 0h100v100H0z" transform="matrix(.31 0 0 .31 496 527)" style="fill:#000"/>
  <path d="M0 0h100v100H0z" transform="matrix(.31 0 0 .31 558 527)" style="fill:#000"/>
  <path d="M0 0h100v100H0z" transform="matrix(.31 0 0 .31 651 527)" style="fill:#000"/>
  <path d="M0 0h100v100H0z" transform="matrix(.31 0 0 .31 682 527)" style="fill:#000"/>
  <path d="M0 0h100v100H0z" transform="matrix(.31 0 0 .31 713 527)" style="fill:#000"/>
  <path d="M0 0h100v100H0z" transform="matrix(.31 0 0 .31 837 527)" style="fill:#000"/>
  <path d="M0 0h100v100H0z" transform="matrix(.31 0 0 .31 868 527)" style="fill:#000"/>
  <path d="M0 0h100v100H0z" transform="matrix(.31 0 0 .31 961 527)" style="fill:#000"/>
  <path d="M0 0h100v100H0z" transform="matrix(.31 0 0 .31 992 527)" style="fill:#000"/>
  <path d="M0 0h100v100H0z" transform="matrix(.31 0 0 .31 124 558)" style="fill:#000"/>
  <path d="M0 0h100v100H0z" transform="matrix(.31 0 0 .31 155 558)" style="fill:#000"/>
  <path d="M0 0h100v100H0z" transform="matrix(.31 0 0 .31 217 558)" style="fill:#000"/>
  <path d="M0 0h100v100H0z" transform="matrix(.31 0 0 .31 248 558)" style="fill:#000"/>
  <path d="M0 0h100v100H0z" transform="matrix(.31 0 0 .31 310 558)" style="fill:#000"/>
  <path d="M0 0h100v100H0z" transform="matrix(.31 0 0 .31 372 558)" style="fill:#000"/>
  <path d="M0 0h100v100H0z" transform="matrix(.31 0 0 .31 434 558)" style="fill:#000"/>
  <path d="M0 0h100v100H0z" transform="matrix(.31 0 0 .31 527 558)" style="fill:#000"/>
  <path d="M0 0h100v100H0z" transform="matrix(.31 0 0 .31 589 558)" style="fill:#000"/>
  <path d="M0 0h100v100H0z" transform="matrix(.31 0 0 .31 620 558)" style="fill:#000"/>
  <path d="M0 0h100v100H0z" transform="matrix(.31 0 0 .31 651 558)" style="fill:#000"/>
  <path d="M0 0h100v100H0z" transform="matrix(.31 0 0 .31 682 558)" style="fill:#000"/>
  <path d="M0 0h100v100H0z" transform="matrix(.31 0 0 .31 713 558)" style="fill:#000"/>
  <path d="M0 0h100v100H0z" transform="matrix(.31 0 0 .31 744 558)" style="fill:#000"/>
  <path d="M0 0h100v100H0z" transform="matrix(.31 0 0 .31 837 558)" style="fill:#000"/>
  <path d="M0 0h100v100H0z" transform="matrix(.31 0 0 .31 868 558)" style="fill:#000"/>
  <path d="M0 0h100v100H0z" transform="matrix(.31 0 0 .31 930 558)" style="fill:#000"/>
  <path d="M0 0h100v100H0z" transform="matrix(.31 0 0 .31 961 558)" style="fill:#000"/>
  <path d="M0 0h100v100H0z" transform="matrix(.31 0 0 .31 992 558)" style="fill:#000"/>
  <path d="M0 0h100v100H0z" transform="matrix(.31 0 0 .31 62 589)" style="fill:#000"/>
  <path d="M0 0h100v100H0z" transform="matrix(.31 0 0 .31 93 589)" style="fill:#000"/>
  <path d="M0 0h100v100H0z" transform="matrix(.31 0 0 .31 155 589)" style="fill:#000"/>
  <path d="M0 0h100v100H0z" transform="matrix(.31 0 0 .31 217 589)" style="fill:#000"/>
  <path d="M0 0h100v100H0z" transform="matrix(.31 0 0 .31 310 589)" style="fill:#000"/>
  <path d="M0 0h100v100H0z" transform="matrix(.31 0 0 .31 341 589)" style="fill:#000"/>
  <path d="M0 0h100v100H0z" transform="matrix(.31 0 0 .31 403 589)" style="fill:#000"/>
  <path d="M0 0h100v100H0z" transform="matrix(.31 0 0 .31 434 589)" style="fill:#000"/>
  <path d="M0 0h100v100H0z" transform="matrix(.31 0 0 .31 465 589)" style="fill:#000"/>
  <path d="M0 0h100v100H0z" transform="matrix(.31 0 0 .31 496 589)" style="fill:#000"/>
  <path d="M0 0h100v100H0z" transform="matrix(.31 0 0 .31 527 589)" style="fill:#000"/>
  <path d="M0 0h100v100H0z" transform="matrix(.31 0 0 .31 589 589)" style="fill:#000"/>
  <path d="M0 0h100v100H0z" transform="matrix(.31 0 0 .31 651 589)" style="fill:#000"/>
  <path d="M0 0h100v100H0z" transform="matrix(.31 0 0 .31 682 589)" style="fill:#000"/>
  <path d="M0 0h100v100H0z" transform="matrix(.31 0 0 .31 744 589)" style="fill:#000"/>
  <path d="M0 0h100v100H0z" transform="matrix(.31 0 0 .31 775 589)" style="fill:#000"/>
  <path d="M0 0h100v100H0z" transform="matrix(.31 0 0 .31 806 589)" style="fill:#000"/>
  <path d="M0 0h100v100H0z" transform="matrix(.31 0 0 .31 837 589)" style="fill:#000"/>
  <path d="M0 0h100v100H0z" transform="matrix(.31 0 0 .31 868 589)" style="fill:#000"/>
  <path d="M0 0h100v100H0z" transform="matrix(.31 0 0 .31 930 589)" style="fill:#000"/>
  <path d="M0 0h100v100H0z" transform="matrix(.31 0 0 .31 961 589)" style="fill:#000"/>
  <path d="M0 0h100v100H0z" transform="matrix(.31 0 0 .31 1023 589)" style="fill:#000"/>
  <path d="M0 0h100v100H0z" transform="matrix(.31 0 0 .31 1054 589)" style="fill:#000"/>
  <path d="M0 0h100v100H0z" transform="matrix(.31 0 0 .31 124 620)" style="fill:#000"/>
  <path d="M0 0h100v100H0z" transform="matrix(.31 0 0 .31 155 620)" style="fill:#000"/>
  <path d="M0 0h100v100H0z" transform="matrix(.31 0 0 .31 186 620)" style="fill:#000"/>
  <path d="M0 0h100v100H0z" transform="matrix(.31 0 0 .31 217 620)" style="fill:#000"/>
  <path d="M0 0h100v100H0z" transform="matrix(.31 0 0 .31 248 620)" style="fill:#000"/>
  <path d="M0 0h100v100H0z" transform="matrix(.31 0 0 .31 279 620)" style="fill:#000"/>
  <path d="M0 0h100v100H0z" transform="matrix(.31 0 0 .31 403 620)" style="fill:#000"/>
  <path d="M0 0h100v100H0z" transform="matrix(.31 0 0 .31 434 620)" style="fill:#000"/>
  <path d="M0 0h100v100H0z" transform="matrix(.31 0 0 .31 465 620)" style="fill:#000"/>
  <path d="M0 0h100v100H0z" transform="matrix(.31 0 0 .31 527 620)" style="fill:#000"/>
  <path d="M0 0h100v100H0z" transform="matrix(.31 0 0 .31 589 620)" style="fill:#000"/>
  <path d="M0 0h100v100H0z" transform="matrix(.31 0 0 .31 682 620)" style="fill:#000"/>
  <path d="M0 0h100v100H0z" transform="matrix(.31 0 0 .31 806 620)" style="fill:#000"/>
  <path d="M0 0h100v100H0z" transform="matrix(.31 0 0 .31 899 620)" style="fill:#000"/>
  <path d="M0 0h100v100H0z" transform="matrix(.31 0 0 .31 930 620)" style="fill:#000"/>
  <path d="M0 0h100v100H0z" transform="matrix(.31 0 0 .31 992 620)" style="fill:#000"/>
  <path d="M0 0h100v100H0z" transform="matrix(.31 0 0 .31 1023 620)" style="fill:#000"/>
  <path d="M0 0h100v100H0z" transform="matrix(.31 0 0 .31 62 651)" style="fill:#000"/>
  <path d="M0 0h100v100H0z" transform="matrix(.31 0 0 .31 186 651)" style="fill:#000"/>
  <path d="M0 0h100v100H0z" transform="matrix(.31 0 0 .31 217 651)" style="fill:#000"/>
  <path d="M0 0h100v100H0z" transform="matrix(.31 0 0 .31 310 651)" style="fill:#000"/>
  <path d="M0 0h100v100H0z" transform="matrix(.31 0 0 .31 341 651)" style="fill:#000"/>
  <path d="M0 0h100v100H0z" transform="matrix(.31 0 0 .31 372 651)" style="fill:#000"/>
  <path d="M0 0h100v100H0z" transform="matrix(.31 0 0 .31 403 651)" style="fill:#000"/>
  <path d="M0 0h100v100H0z" transform="matrix(.31 0 0 .31 434 651)" style="fill:#000"/>
  <path d="M0 0h100v100H0z" transform="matrix(.31 0 0 .31 465 651)" style="fill:#000"/>
  <path d="M0 0h100v100H0z" transform="matrix(.31 0 0 .31 496 651)" style="fill:#000"/>
  <path d="M0 0h100v100H0z" transform="matrix(.31 0 0 .31 527 651)" style="fill:#000"/>
  <path d="M0 0h100v100H0z" transform="matrix(.31 0 0 .31 558 651)" style="fill:#000"/>
  <path d="M0 0h100v100H0z" transform="matrix(.31 0 0 .31 651 651)" style="fill:#000"/>
  <path d="M0 0h100v100H0z" transform="matrix(.31 0 0 .31 744 651)" style="fill:#000"/>
  <path d="M0 0h100v100H0z" transform="matrix(.31 0 0 .31 775 651)" style="fill:#000"/>
  <path d="M0 0h100v100H0z" transform="matrix(.31 0 0 .31 806 651)" style="fill:#000"/>
  <path d="M0 0h100v100H0z" transform="matrix(.31 0 0 .31 837 651)" style="fill:#000"/>
  <path d="M0 0h100v100H0z" transform="matrix(.31 0 0 .31 868 651)" style="fill:#000"/>
  <path d="M0 0h100v100H0z" transform="matrix(.31 0 0 .31 930 651)" style="fill:#000"/>
  <path d="M0 0h100v100H0z" transform="matrix(.31 0 0 .31 124 682)" style="fill:#000"/>
  <path d="M0 0h100v100H0z" transform="matrix(.31 0 0 .31 155 682)" style="fill:#000"/>
  <path d="M0 0h100v100H0z" transform="matrix(.31 0 0 .31 248 682)" style="fill:#000"/>
  <path d="M0 0h100v100H0z" transform="matrix(.31 0 0 .31 310 682)" style="fill:#000"/>
  <path d="M0 0h100v100H0z" transform="matrix(.31 0 0 .31 465 682)" style="fill:#000"/>
  <path d="M0 0h100v100H0z" transform="matrix(.31 0 0 .31 527 682)" style="fill:#000"/>
  <path d="M0 0h100v100H0z" transform="matrix(.31 0 0 .31 620 682)" style="fill:#000"/>
  <path d="M0 0h100v100H0z" transform="matrix(.31 0 0 .31 682 682)" style="fill:#000"/>
  <path d="M0 0h100v100H0z" transform="matrix(.31 0 0 .31 713 682)" style="fill:#000"/>
  <path d="M0 0h100v100H0z" transform="matrix(.31 0 0 .31 899 682)" style="fill:#000"/>
  <path d="M0 0h100v100H0z" transform="matrix(.31 0 0 .31 961 682)" style="fill:#000"/>
  <path d="M0 0h100v100H0z" transform="matrix(.31 0 0 .31 992 682)" style="fill:#000"/>
  <path d="M0 0h100v100H0z" transform="matrix(.31 0 0 .31 1054 682)" style="fill:#000"/>
  <path d="M0 0h100v100H0z" transform="matrix(.31 0 0 .31 62 713)" style="fill:#000"/>
  <path d="M0 0h100v100H0z" transform="matrix(.31 0 0 .31 93 713)" style="fill:#000"/>
  <path d="M0 0h100v100H0z" transform="matrix(.31 0 0 .31 124 713)" style="fill:#000"/>
  <path d="M0 0h100v100H0z" transform="matrix(.31 0 0 .31 279 713)" style="fill:#000"/>
  <path d="M0 0h100v100H0z" transform="matrix(.31 0 0 .31 310 713)" style="fill:#000"/>
  <path d="M0 0h100v100H0z" transform="matrix(.31 0 0 .31 341 713)" style="fill:#000"/>
  <path d="M0 0h100v100H0z" transform="matrix(.31 0 0 .31 434 713)" style="fill:#000"/>
  <path d="M0 0h100v100H0z" transform="matrix(.31 0 0 .31 527 713)" style="fill:#000"/>
  <path d="M0 0h100v100H0z" transform="matrix(.31 0 0 .31 620 713)" style="fill:#000"/>
  <path d="M0 0h100v100H0z" transform="matrix(.31 0 0 .31 713 713)" style="fill:#000"/>
  <path d="M0 0h100v100H0z" transform="matrix(.31 0 0 .31 744 713)" style="fill:#000"/>
  <path d="M0 0h100v100H0z" transform="matrix(.31 0 0 .31 775 713)" style="fill:#000"/>
  <path d="M0 0h100v100H0z" transform="matrix(.31 0 0 .31 806 713)" style="fill:#000"/>
  <path d="M0 0h100v100H0z" transform="matrix(.31 0 0 .31 868 713)" style="fill:#000"/>
  <path d="M0 0h100v100H0z" transform="matrix(.31 0 0 .31 992 713)" style="fill:#000"/>
  <path d="M0 0h100v100H0z" transform="matrix(.31 0 0 .31 1054 713)" style="fill:#000"/>
  <path d="M0 0h100v100H0z" transform="matrix(.31 0 0 .31 217 744)" style="fill:#000"/>
  <path d="M0 0h100v100H0z" transform="matrix(.31 0 0 .31 248 744)" style="fill:#000"/>
  <path d="M0 0h100v100H0z" transform="matrix(.31 0 0 .31 310 744)" style="fill:#000"/>
  <path d="M0 0h100v100H0z" transform="matrix(.31 0 0 .31 341 744)" style="fill:#000"/>
  <path d="M0 0h100v100H0z" transform="matrix(.31 0 0 .31 372 744)" style="fill:#000"/>
  <path d="M0 0h100v100H0z" transform="matrix(.31 0 0 .31 434 744)" style="fill:#000"/>
  <path d="M0 0h100v100H0z" transform="matrix(.31 0 0 .31 496 744)" style="fill:#000"/>
  <path d="M0 0h100v100H0z" transform="matrix(.31 0 0 .31 558 744)" style="fill:#000"/>
  <path d="M0 0h100v100H0z" transform="matrix(.31 0 0 .31 620 744)" style="fill:#000"/>
  <path d="M0 0h100v100H0z" transform="matrix(.31 0 0 .31 713 744)" style="fill:#000"/>
  <path d="M0 0h100v100H0z" transform="matrix(.31 0 0 .31 775 744)" style="fill:#000"/>
  <path d="M0 0h100v100H0z" transform="matrix(.31 0 0 .31 837 744)" style="fill:#000"/>
  <path d="M0 0h100v100H0z" transform="matrix(.31 0 0 .31 868 744)" style="fill:#000"/>
  <path d="M0 0h100v100H0z" transform="matrix(.31 0 0 .31 930 744)" style="fill:#000"/>
  <path d="M0 0h100v100H0z" transform="matrix(.31 0 0 .31 992 744)" style="fill:#000"/>
  <path d="M0 0h100v100H0z" transform="matrix(.31 0 0 .31 1023 744)" style="fill:#000"/>
  <path d="M0 0h100v100H0z" transform="matrix(.31 0 0 .31 1054 744)" style="fill:#000"/>
  <path d="M0 0h100v100H0z" transform="matrix(.31 0 0 .31 93 775)" style="fill:#000"/>
  <path d="M0 0h100v100H0z" transform="matrix(.31 0 0 .31 186 775)" style="fill:#000"/>
  <path d="M0 0h100v100H0z" transform="matrix(.31 0 0 .31 217 775)" style="fill:#000"/>
  <path d="M0 0h100v100H0z" transform="matrix(.31 0 0 .31 279 775)" style="fill:#000"/>
  <path d="M0 0h100v100H0z" transform="matrix(.31 0 0 .31 310 775)" style="fill:#000"/>
  <path d="M0 0h100v100H0z" transform="matrix(.31 0 0 .31 341 775)" style="fill:#000"/>
  <path d="M0 0h100v100H0z" transform="matrix(.31 0 0 .31 372 775)" style="fill:#000"/>
  <path d="M0 0h100v100H0z" transform="matrix(.31 0 0 .31 465 775)" style="fill:#000"/>
  <path d="M0 0h100v100H0z" transform="matrix(.31 0 0 .31 558 775)" style="fill:#000"/>
  <path d="M0 0h100v100H0z" transform="matrix(.31 0 0 .31 620 775)" style="fill:#000"/>
  <path d="M0 0h100v100H0z" transform="matrix(.31 0 0 .31 651 775)" style="fill:#000"/>
  <path d="M0 0h100v100H0z" transform="matrix(.31 0 0 .31 806 775)" style="fill:#000"/>
  <path d="M0 0h100v100H0z" transform="matrix(.31 0 0 .31 868 775)" style="fill:#000"/>
  <path d="M0 0h100v100H0z" transform="matrix(.31 0 0 .31 899 775)" style="fill:#000"/>
  <path d="M0 0h100v100H0z" transform="matrix(.31 0 0 .31 961 775)" style="fill:#000"/>
  <path d="M0 0h100v100H0z" transform="matrix(.31 0 0 .31 1023 775)" style="fill:#000"/>
  <path d="M0 0h100v100H0z" transform="matrix(.31 0 0 .31 62 806)" style="fill:#000"/>
  <path d="M0 0h100v100H0z" transform="matrix(.31 0 0 .31 248 806)" style="fill:#000"/>
  <path d="M0 0h100v100H0z" transform="matrix(.31 0 0 .31 310 806)" style="fill:#000"/>
  <path d="M0 0h100v100H0z" transform="matrix(.31 0 0 .31 341 806)" style="fill:#000"/>
  <path d="M0 0h100v100H0z" transform="matrix(.31 0 0 .31 372 806)" style="fill:#000"/>
  <path d="M0 0h100v100H0z" transform="matrix(.31 0 0 .31 465 806)" style="fill:#000"/>
  <path d="M0 0h100v100H0z" transform="matrix(.31 0 0 .31 496 806)" style="fill:#000"/>
  <path d="M0 0h100v100H0z" transform="matrix(.31 0 0 .31 527 806)" style="fill:#000"/>
  <path d="M0 0h100v100H0z" transform="matrix(.31 0 0 .31 744 806)" style="fill:#000"/>
  <path d="M0 0h100v100H0z" transform="matrix(.31 0 0 .31 806 806)" style="fill:#000"/>
  <path d="M0 0h100v100H0z" transform="matrix(.31 0 0 .31 837 806)" style="fill:#000"/>
  <path d="M0 0h100v100H0z" transform="matrix(.31 0 0 .31 868 806)" style="fill:#000"/>
  <path d="M0 0h100v100H0z" transform="matrix(.31 0 0 .31 899 806)" style="fill:#000"/>
  <path d="M0 0h100v100H0z" transform="matrix(.31 0 0 .31 930 806)" style="fill:#000"/>
  <path d="M0 0h100v100H0z" transform="matrix(.31 0 0 .31 310 837)" style="fill:#000"/>
  <path d="M0 0h100v100H0z" transform="matrix(.31 0 0 .31 341 837)" style="fill:#000"/>
  <path d="M0 0h100v100H0z" transform="matrix(.31 0 0 .31 372 837)" style="fill:#000"/>
  <path d="M0 0h100v100H0z" transform="matrix(.31 0 0 .31 403 837)" style="fill:#000"/>
  <path d="M0 0h100v100H0z" transform="matrix(.31 0 0 .31 496 837)" style="fill:#000"/>
  <path d="M0 0h100v100H0z" transform="matrix(.31 0 0 .31 527 837)" style="fill:#000"/>
  <path d="M0 0h100v100H0z" transform="matrix(.31 0 0 .31 558 837)" style="fill:#000"/>
  <path d="M0 0h100v100H0z" transform="matrix(.31 0 0 .31 589 837)" style="fill:#000"/>
  <path d="M0 0h100v100H0z" transform="matrix(.31 0 0 .31 651 837)" style="fill:#000"/>
  <path d="M0 0h100v100H0z" transform="matrix(.31 0 0 .31 682 837)" style="fill:#000"/>
  <path d="M0 0h100v100H0z" transform="matrix(.31 0 0 .31 806 837)" style="fill:#000"/>
  <path d="M0 0h100v100H0z" transform="matrix(.31 0 0 .31 930 837)" style="fill:#000"/>
  <path d="M0 0h100v100H0z" transform="matrix(.31 0 0 .31 961 837)" style="fill:#000"/>
  <path d="M0 0h100v100H0z" transform="matrix(.31 0 0 .31 310 868)" style="fill:#000"/>
  <path d="M0 0h100v100H0z" transform="matrix(.31 0 0 .31 341 868)" style="fill:#000"/>
  <path d="M0 0h100v100H0z" transform="matrix(.31 0 0 .31 372 868)" style="fill:#000"/>
  <path d="M0 0h100v100H0z" transform="matrix(.31 0 0 .31 434 868)" style="fill:#000"/>
  <path d="M0 0h100v100H0z" transform="matrix(.31 0 0 .31 496 868)" style="fill:#000"/>
  <path d="M0 0h100v100H0z" transform="matrix(.31 0 0 .31 651 868)" style="fill:#000"/>
  <path d="M0 0h100v100H0z" transform="matrix(.31 0 0 .31 682 868)" style="fill:#000"/>
  <path d="M0 0h100v100H0z" transform="matrix(.31 0 0 .31 775 868)" style="fill:#000"/>
  <path d="M0 0h100v100H0z" transform="matrix(.31 0 0 .31 806 868)" style="fill:#000"/>
  <path d="M0 0h100v100H0z" transform="matrix(.31 0 0 .31 868 868)" style="fill:#000"/>
  <path d="M0 0h100v100H0z" transform="matrix(.31 0 0 .31 930 868)" style="fill:#000"/>
  <path d="M0 0h100v100H0z" transform="matrix(.31 0 0 .31 310 899)" style="fill:#000"/>
  <path d="M0 0h100v100H0z" transform="matrix(.31 0 0 .31 341 899)" style="fill:#000"/>
  <path d="M0 0h100v100H0z" transform="matrix(.31 0 0 .31 372 899)" style="fill:#000"/>
  <path d="M0 0h100v100H0z" transform="matrix(.31 0 0 .31 465 899)" style="fill:#000"/>
  <path d="M0 0h100v100H0z" transform="matrix(.31 0 0 .31 496 899)" style="fill:#000"/>
  <path d="M0 0h100v100H0z" transform="matrix(.31 0 0 .31 558 899)" style="fill:#000"/>
  <path d="M0 0h100v100H0z" transform="matrix(.31 0 0 .31 682 899)" style="fill:#000"/>
  <path d="M0 0h100v100H0z" transform="matrix(.31 0 0 .31 713 899)" style="fill:#000"/>
  <path d="M0 0h100v100H0z" transform="matrix(.31 0 0 .31 775 899)" style="fill:#000"/>
  <path d="M0 0h100v100H0z" transform="matrix(.31 0 0 .31 806 899)" style="fill:#000"/>
  <path d="M0 0h100v100H0z" transform="matrix(.31 0 0 .31 930 899)" style="fill:#000"/>
  <path d="M0 0h100v100H0z" transform="matrix(.31 0 0 .31 961 899)" style="fill:#000"/>
  <path d="M0 0h100v100H0z" transform="matrix(.31 0 0 .31 992 899)" style="fill:#000"/>
  <path d="M0 0h100v100H0z" transform="matrix(.31 0 0 .31 1023 899)" style="fill:#000"/>
  <path d="M0 0h100v100H0z" transform="matrix(.31 0 0 .31 1054 899)" style="fill:#000"/>
  <path d="M0 0h100v100H0z" transform="matrix(.31 0 0 .31 341 930)" style="fill:#000"/>
  <path d="M0 0h100v100H0z" transform="matrix(.31 0 0 .31 372 930)" style="fill:#000"/>
  <path d="M0 0h100v100H0z" transform="matrix(.31 0 0 .31 403 930)" style="fill:#000"/>
  <path d="M0 0h100v100H0z" transform="matrix(.31 0 0 .31 465 930)" style="fill:#000"/>
  <path d="M0 0h100v100H0z" transform="matrix(.31 0 0 .31 527 930)" style="fill:#000"/>
  <path d="M0 0h100v100H0z" transform="matrix(.31 0 0 .31 589 930)" style="fill:#000"/>
  <path d="M0 0h100v100H0z" transform="matrix(.31 0 0 .31 651 930)" style="fill:#000"/>
  <path d="M0 0h100v100H0z" transform="matrix(.31 0 0 .31 682 930)" style="fill:#000"/>
  <path d="M0 0h100v100H0z" transform="matrix(.31 0 0 .31 775 930)" style="fill:#000"/>
  <path d="M0 0h100v100H0z" transform="matrix(.31 0 0 .31 806 930)" style="fill:#000"/>
  <path d="M0 0h100v100H0z" transform="matrix(.31 0 0 .31 837 930)" style="fill:#000"/>
  <path d="M0 0h100v100H0z" transform="matrix(.31 0 0 .31 868 930)" style="fill:#000"/>
  <path d="M0 0h100v100H0z" transform="matrix(.31 0 0 .31 899 930)" style="fill:#000"/>
  <path d="M0 0h100v100H0z" transform="matrix(.31 0 0 .31 930 930)" style="fill:#000"/>
  <path d="M0 0h100v100H0z" transform="matrix(.31 0 0 .31 992 930)" style="fill:#000"/>
  <path d="M0 0h100v100H0z" transform="matrix(.31 0 0 .31 1023 930)" style="fill:#000"/>
  <path d="M0 0h100v100H0z" transform="matrix(.31 0 0 .31 310 961)" style="fill:#000"/>
  <path d="M0 0h100v100H0z" transform="matrix(.31 0 0 .31 341 961)" style="fill:#000"/>
  <path d="M0 0h100v100H0z" transform="matrix(.31 0 0 .31 372 961)" style="fill:#000"/>
  <path d="M0 0h100v100H0z" transform="matrix(.31 0 0 .31 403 961)" style="fill:#000"/>
  <path d="M0 0h100v100H0z" transform="matrix(.31 0 0 .31 465 961)" style="fill:#000"/>
  <path d="M0 0h100v100H0z" transform="matrix(.31 0 0 .31 496 961)" style="fill:#000"/>
  <path d="M0 0h100v100H0z" transform="matrix(.31 0 0 .31 620 961)" style="fill:#000"/>
  <path d="M0 0h100v100H0z" transform="matrix(.31 0 0 .31 651 961)" style="fill:#000"/>
  <path d="M0 0h100v100H0z" transform="matrix(.31 0 0 .31 682 961)" style="fill:#000"/>
  <path d="M0 0h100v100H0z" transform="matrix(.31 0 0 .31 713 961)" style="fill:#000"/>
  <path d="M0 0h100v100H0z" transform="matrix(.31 0 0 .31 744 961)" style="fill:#000"/>
  <path d="M0 0h100v100H0z" transform="matrix(.31 0 0 .31 775 961)" style="fill:#000"/>
  <path d="M0 0h100v100H0z" transform="matrix(.31 0 0 .31 899 961)" style="fill:#000"/>
  <path d="M0 0h100v100H0z" transform="matrix(.31 0 0 .31 961 961)" style="fill:#000"/>
  <path d="M0 0h100v100H0z" transform="matrix(.31 0 0 .31 992 961)" style="fill:#000"/>
  <path d="M0 0h100v100H0z" transform="matrix(.31 0 0 .31 1054 961)" style="fill:#000"/>
  <path d="M0 0h100v100H0z" transform="matrix(.31 0 0 .31 310 992)" style="fill:#000"/>
  <path d="M0 0h100v100H0z" transform="matrix(.31 0 0 .31 496 992)" style="fill:#000"/>
  <path d="M0 0h100v100H0z" transform="matrix(.31 0 0 .31 589 992)" style="fill:#000"/>
  <path d="M0 0h100v100H0z" transform="matrix(.31 0 0 .31 651 992)" style="fill:#000"/>
  <path d="M0 0h100v100H0z" transform="matrix(.31 0 0 .31 744 992)" style="fill:#000"/>
  <path d="M0 0h100v100H0z" transform="matrix(.31 0 0 .31 868 992)" style="fill:#000"/>
  <path d="M0 0h100v100H0z" transform="matrix(.31 0 0 .31 899 992)" style="fill:#000"/>
  <path d="M0 0h100v100H0z" transform="matrix(.31 0 0 .31 961 992)" style="fill:#000"/>
  <path d="M0 0h100v100H0z" transform="matrix(.31 0 0 .31 341 1023)" style="fill:#000"/>
  <path d="M0 0h100v100H0z" transform="matrix(.31 0 0 .31 372 1023)" style="fill:#000"/>
  <path d="M0 0h100v100H0z" transform="matrix(.31 0 0 .31 434 1023)" style="fill:#000"/>
  <path d="M0 0h100v100H0z" transform="matrix(.31 0 0 .31 465 1023)" style="fill:#000"/>
  <path d="M0 0h100v100H0z" transform="matrix(.31 0 0 .31 527 1023)" style="fill:#000"/>
  <path d="M0 0h100v100H0z" transform="matrix(.31 0 0 .31 558 1023)" style="fill:#000"/>
  <path d="M0 0h100v100H0z" transform="matrix(.31 0 0 .31 589 1023)" style="fill:#000"/>
  <path d="M0 0h100v100H0z" transform="matrix(.31 0 0 .31 620 1023)" style="fill:#000"/>
  <path d="M0 0h100v100H0z" transform="matrix(.31 0 0 .31 651 1023)" style="fill:#000"/>
  <path d="M0 0h100v100H0z" transform="matrix(.31 0 0 .31 744 1023)" style="fill:#000"/>
  <path d="M0 0h100v100H0z" transform="matrix(.31 0 0 .31 806 1023)" style="fill:#000"/>
  <path d="M0 0h100v100H0z" transform="matrix(.31 0 0 .31 868 1023)" style="fill:#000"/>
  <path d="M0 0h100v100H0z" transform="matrix(.31 0 0 .31 899 1023)" style="fill:#000"/>
  <path d="M0 0h100v100H0z" transform="matrix(.31 0 0 .31 930 1023)" style="fill:#000"/>
  <path d="M0 0h100v100H0z" transform="matrix(.31 0 0 .31 1054 1023)" style="fill:#000"/>
  <path d="M0 0h100v100H0z" transform="matrix(.31 0 0 .31 310 1054)" style="fill:#000"/>
  <path d="M0 0h100v100H0z" transform="matrix(.31 0 0 .31 341 1054)" style="fill:#000"/>
  <path d="M0 0h100v100H0z" transform="matrix(.31 0 0 .31 403 1054)" style="fill:#000"/>
  <path d="M0 0h100v100H0z" transform="matrix(.31 0 0 .31 465 1054)" style="fill:#000"/>
  <path d="M0 0h100v100H0z" transform="matrix(.31 0 0 .31 496 1054)" style="fill:#000"/>
  <path d="M0 0h100v100H0z" transform="matrix(.31 0 0 .31 527 1054)" style="fill:#000"/>
  <path d="M0 0h100v100H0z" transform="matrix(.31 0 0 .31 558 1054)" style="fill:#000"/>
  <path d="M0 0h100v100H0z" transform="matrix(.31 0 0 .31 589 1054)" style="fill:#000"/>
  <path d="M0 0h100v100H0z" transform="matrix(.31 0 0 .31 713 1054)" style="fill:#000"/>
  <path d="M0 0h100v100H0z" transform="matrix(.31 0 0 .31 775 1054)" style="fill:#000"/>
  <path d="M0 0h100v100H0z" transform="matrix(.31 0 0 .31 868 1054)" style="fill:#000"/>
  <path d="M0 0h100v100H0z" transform="matrix(.31 0 0 .31 930 1054)" style="fill:#000"/>
  <path d="M0 0h100v100H0z" transform="matrix(.31 0 0 .31 992 1054)" style="fill:#000"/>
  <g style="fill:#000">
    <path style="fill:none" d="M15 15h70v70H15z" transform="matrix(2.17 0 0 2.17 62 62)"/>
    <path d="M246.45 62H62v217h217V62h-32.55zm0 184.45H94.55V94.55h151.9v151.9z"/>
  </g>
  <g style="fill:#000">
    <path style="fill:none" d="M15 15h70v70H15z" transform="matrix(2.17 0 0 2.17 868 62)"/>
    <path d="M1052.45 62H868v217h217V62h-32.55zm0 184.45h-151.9V94.55h151.9v151.9z"/>
  </g>
  <g style="fill:#000">
    <path style="fill:none" d="M15 15h70v70H15z" transform="matrix(2.17 0 0 2.17 62 868)"/>
    <path d="M246.45 868H62v217h217V868h-32.55zm0 184.45H94.55v-151.9h151.9v151.9z"/>
  </g>
  <path d="M0 0h100v100H0z" transform="matrix(.93 0 0 .93 124 124)" style="fill:#000"/>
  <path d="M0 0h100v100H0z" transform="matrix(.93 0 0 .93 930 124)" style="fill:#000"/>
  <path d="M0 0h100v100H0z" transform="matrix(.93 0 0 .93 124 930)" style="fill:#000"/>
</svg>
